<?xml version="1.0" encoding="UTF-8"?>
<svg xmlns="http://www.w3.org/2000/svg" width="1397" height="526" viewBox="0 0 1397 526" fill="none">
  <g clip-path="url(#clip0_1_2)">
    <path d="M5.75255 496.357L40.6757 401.556C42.963 395.346 48.6244 391.246 54.9285 391.246H71.6387L117.979 518.407H91.8365C87.3565 505.357 75.6367 496.677 62.5086 496.677H53.0855C39.9669 496.677 28.247 505.367 23.7576 518.407H19.9959C9.2307 518.407 1.83963 506.957 5.74309 496.347L5.75255 496.357ZM39.0501 473.517H76.7331L60.9113 426.957C59.9473 424.106 56.1383 424.096 55.1554 426.936L39.0406 473.517H39.0501Z" fill="#E20613"></path>
    <path d="M177.911 519.857C165.69 519.857 155.275 517.137 146.674 511.687C138.073 506.237 131.504 498.637 126.987 488.877C122.459 479.117 120.2 467.717 120.2 454.657C120.2 444.957 121.476 436.127 124.019 428.167C126.571 420.206 130.304 413.346 135.219 407.606C140.143 401.856 146.173 397.456 153.299 394.406C160.426 391.356 168.516 389.826 177.571 389.826C186.625 389.826 194.943 391.386 202.182 394.496C209.422 397.616 215.452 402.246 220.263 408.416C225.074 414.586 228.212 422.276 229.686 431.497H205.075C204.167 427.547 202.532 424.287 200.15 421.706C197.778 419.136 194.801 417.186 191.238 415.866C187.674 414.546 183.629 413.886 179.102 413.886C172.873 413.886 167.618 415.026 163.309 417.296C159.008 419.576 155.53 422.656 152.874 426.546C150.209 430.437 148.29 434.867 147.099 439.837C145.908 444.807 145.313 449.927 145.313 455.197C145.313 462.377 146.438 469.057 148.706 475.227C150.965 481.397 154.538 486.357 159.405 490.137C164.273 493.907 170.719 495.797 178.752 495.797C184.073 495.797 188.79 494.927 192.929 493.187C197.06 491.457 200.396 488.817 202.948 485.287C205.49 481.757 206.937 477.477 207.277 472.447H174.518V450.357H232.238V457.357C232.238 470.287 230.197 481.427 226.123 490.767C222.049 500.107 215.991 507.287 207.957 512.317C199.924 517.347 189.905 519.857 177.911 519.857Z" fill="#E20613"></path>
    <path d="M251.075 518.417V391.256H299.457C305.449 391.256 311.196 391.886 316.687 393.146C322.178 394.406 327.131 396.536 331.545 399.526C335.959 402.516 339.437 406.686 341.989 412.006C344.54 417.336 345.807 424.127 345.807 432.397C345.807 438.507 344.843 444.007 342.924 448.917C340.996 453.827 338.17 458.017 334.437 461.487C330.704 464.967 326.233 467.657 321.025 469.567L347.678 518.417H320.345L296.915 473.697H275.356V518.417H251.084H251.075ZM275.346 450.887H297.756C301.262 450.887 304.457 450.557 307.349 449.897C310.232 449.237 312.727 448.187 314.816 446.757C316.904 445.317 318.549 443.407 319.74 441.007C320.931 438.617 321.526 435.677 321.526 432.207C321.64 427.777 320.761 424.336 318.899 421.876C317.027 419.426 314.428 417.686 311.092 416.666C307.755 415.646 303.824 415.136 299.296 415.136H275.356V450.877L275.346 450.887Z" fill="#E20613"></path>
    <path d="M420.653 519.857C408.319 519.857 397.705 517.097 388.821 511.597C379.936 506.087 373.15 498.457 368.453 488.697C363.755 478.937 361.411 467.717 361.411 455.017C361.411 442.317 363.812 430.717 368.623 420.886C373.434 411.076 380.305 403.436 389.246 397.986C398.187 392.536 408.82 389.816 421.164 389.816C433.507 389.816 443.913 392.506 452.741 397.896C461.569 403.286 468.383 410.826 473.194 420.526C478.005 430.227 480.405 441.537 480.405 454.477C480.405 467.417 478.005 478.457 473.194 488.327C468.383 498.207 461.54 505.927 452.656 511.497C443.771 517.067 433.101 519.847 420.653 519.847V519.857ZM420.993 495.787C429.141 495.787 435.766 493.807 440.851 489.857C445.945 485.907 449.65 480.817 451.966 474.587C454.282 468.367 455.444 461.837 455.444 455.007C455.444 449.977 454.792 445.007 453.488 440.097C452.183 435.187 450.18 430.757 447.467 426.807C444.745 422.856 441.182 419.716 436.768 417.376C432.354 415.036 427.033 413.876 420.814 413.876C412.78 413.876 406.211 415.826 401.126 419.716C396.032 423.607 392.27 428.667 389.841 434.897C387.412 441.127 386.193 447.767 386.193 454.837C386.193 461.907 387.412 468.547 389.841 474.777C392.27 481.007 396.06 486.067 401.212 489.957C406.363 493.847 412.95 495.797 420.984 495.797L420.993 495.787Z" fill="#E20613"></path>
    <path d="M499.252 518.417V391.256H524.033L579.542 477.287V391.256H603.813V518.417H579.702L523.513 433.287V518.417H499.242H499.252Z" fill="#E20613"></path>
    <path d="M629.285 518.417V391.256H715.86V415.146H653.556V443.887H707.033V466.877H653.556V494.717H715.86V518.427H629.285V518.417Z" fill="#E20613"></path>
    <path d="M785.792 519.857C773.571 519.857 763.155 517.137 754.555 511.687C745.954 506.237 739.385 498.637 734.867 488.877C730.34 479.117 728.081 467.717 728.081 454.657C728.081 444.957 729.357 436.127 731.899 428.167C734.451 420.206 738.185 413.346 743.099 407.606C748.024 401.856 754.054 397.456 761.18 394.406C768.307 391.356 776.397 389.826 785.452 389.826C794.506 389.826 802.823 391.386 810.063 394.496C817.303 397.616 823.333 402.246 828.144 408.416C832.955 414.586 836.092 422.276 837.567 431.497H812.955C812.048 427.547 810.413 424.287 808.031 421.706C805.659 419.136 802.682 417.186 799.118 415.866C795.555 414.546 791.51 413.886 786.983 413.886C780.754 413.886 775.499 415.026 771.189 417.296C766.889 419.576 763.411 422.656 760.755 426.546C758.09 430.437 756.171 434.867 754.98 439.837C753.789 444.807 753.194 449.927 753.194 455.197C753.194 462.377 754.318 469.057 756.587 475.227C758.846 481.397 762.418 486.357 767.286 490.137C772.153 493.907 778.599 495.797 786.633 495.797C791.954 495.797 796.67 494.927 800.81 493.187C804.94 491.457 808.277 488.817 810.829 485.287C813.371 481.757 814.817 477.477 815.157 472.447H782.399V450.357H840.119V457.357C840.119 470.287 838.077 481.427 834.004 490.767C829.93 500.107 823.872 507.287 815.838 512.317C807.804 517.347 797.786 519.857 785.792 519.857Z" fill="#E20613"></path>
    <path d="M913.443 519.857C901.109 519.857 890.495 517.097 881.611 511.597C872.726 506.087 865.94 498.457 861.243 488.697C856.545 478.937 854.202 467.717 854.202 455.017C854.202 442.317 856.602 430.717 861.413 420.886C866.224 411.076 873.095 403.436 882.036 397.986C890.977 392.536 901.61 389.816 913.954 389.816C926.297 389.816 936.703 392.506 945.531 397.896C954.359 403.286 961.173 410.826 965.984 420.526C970.795 430.227 973.195 441.537 973.195 454.477C973.195 467.417 970.795 478.457 965.984 488.327C961.173 498.207 954.33 505.927 945.446 511.497C936.562 517.067 925.891 519.847 913.443 519.847V519.857ZM913.784 495.787C921.931 495.787 928.556 493.807 933.641 489.857C938.735 485.907 942.44 480.817 944.756 474.587C947.072 468.367 948.234 461.837 948.234 455.007C948.234 449.977 947.582 445.007 946.278 440.097C944.973 435.187 942.97 430.757 940.257 426.807C937.535 422.856 933.972 419.716 929.558 417.376C925.144 415.036 919.823 413.876 913.604 413.876C905.57 413.876 899.002 415.826 893.917 419.716C888.822 423.607 885.061 428.667 882.632 434.897C880.202 441.127 878.983 447.767 878.983 454.837C878.983 461.907 880.202 468.547 882.632 474.777C885.061 481.007 888.851 486.067 894.002 489.957C899.153 493.847 905.74 495.797 913.774 495.797L913.784 495.787Z" fill="#E20613"></path>
    <path d="M1045.17 519.857C1032.83 519.857 1022.33 517.187 1013.68 511.867C1005.02 506.537 998.45 499.027 993.989 489.327C989.518 479.627 987.288 468.317 987.288 455.387C987.288 442.457 989.584 430.727 994.159 420.896C998.743 411.086 1005.33 403.446 1013.93 397.996C1022.53 392.546 1032.89 389.826 1045 389.826C1054.17 389.826 1062.37 391.476 1069.61 394.766C1076.85 398.066 1082.71 402.906 1087.18 409.316C1091.65 415.726 1094.45 423.596 1095.58 432.937H1072.15C1070.68 427.067 1067.71 422.426 1063.24 419.016C1058.77 415.606 1052.85 413.896 1045.5 413.896C1037.35 413.896 1030.87 415.846 1026.07 419.736C1021.26 423.626 1017.78 428.657 1015.62 434.827C1013.47 440.997 1012.4 447.487 1012.4 454.317C1012.4 461.147 1013.52 468.087 1015.79 474.427C1018.05 480.777 1021.65 485.927 1026.57 489.877C1031.49 493.827 1037.97 495.807 1046.01 495.807C1050.76 495.807 1055.01 495.057 1058.74 493.557C1062.47 492.067 1065.56 489.877 1067.99 487.007C1070.42 484.137 1072.1 480.717 1073 476.767H1097.27C1096.25 485.987 1093.31 493.827 1088.45 500.297C1083.58 506.767 1077.42 511.647 1069.94 514.937C1062.47 518.227 1054.21 519.877 1045.16 519.877L1045.17 519.857Z" fill="#E20613"></path>
    <path d="M1115.11 518.417V391.256H1139.38V518.417H1115.11Z" fill="#E20613"></path>
    <path d="M1217.47 519.857C1205.13 519.857 1194.52 517.097 1185.64 511.597C1176.75 506.087 1169.97 498.457 1165.27 488.697C1160.57 478.937 1158.23 467.717 1158.23 455.017C1158.23 442.317 1160.63 430.717 1165.44 420.886C1170.25 411.076 1177.12 403.436 1186.06 397.986C1195 392.536 1205.64 389.816 1217.98 389.816C1230.32 389.816 1240.73 392.506 1249.56 397.896C1258.38 403.286 1265.2 410.826 1270.01 420.526C1274.82 430.227 1277.22 441.537 1277.22 454.477C1277.22 467.417 1274.82 478.457 1270.01 488.327C1265.2 498.207 1258.36 505.927 1249.47 511.497C1240.59 517.067 1229.92 519.847 1217.47 519.847V519.857ZM1217.81 495.787C1225.96 495.787 1232.58 493.807 1237.67 489.857C1242.76 485.907 1246.47 480.817 1248.78 474.587C1251.1 468.367 1252.26 461.837 1252.26 455.007C1252.26 449.977 1251.61 445.007 1250.3 440.097C1249 435.187 1247 430.757 1244.28 426.807C1241.56 422.856 1238 419.716 1233.58 417.376C1229.17 415.036 1223.85 413.876 1217.63 413.876C1209.6 413.876 1203.03 415.826 1197.94 419.716C1192.85 423.607 1189.09 428.667 1186.66 434.897C1184.23 441.127 1183.01 447.767 1183.01 454.837C1183.01 461.907 1184.23 468.547 1186.66 474.777C1189.09 481.007 1192.88 486.067 1198.03 489.957C1203.18 493.847 1209.77 495.797 1217.8 495.797L1217.81 495.787Z" fill="#E20613"></path>
    <path d="M1343.26 519.857C1334.88 519.857 1327.11 518.477 1319.91 515.727C1312.72 512.977 1306.73 508.607 1301.92 502.617C1297.11 496.627 1294.08 488.907 1292.83 479.447H1317.62C1318.64 483.517 1320.5 486.787 1323.22 489.237C1325.93 491.697 1329.19 493.457 1332.98 494.537C1336.77 495.617 1340.76 496.157 1344.95 496.157C1348.12 496.157 1351.23 495.737 1354.29 494.897C1357.34 494.057 1359.86 492.627 1361.84 490.587C1363.82 488.557 1364.81 485.797 1364.81 482.327C1364.81 479.697 1364.27 477.537 1363.19 475.867C1362.11 474.197 1360.58 472.847 1358.61 471.827C1356.62 470.807 1354.22 469.887 1351.4 469.047C1349.02 468.327 1346.56 467.727 1344.01 467.247C1341.47 466.767 1338.98 466.167 1336.55 465.447C1334.12 464.727 1331.77 463.887 1329.51 462.927C1325.21 461.727 1321.08 460.267 1317.12 458.527C1313.16 456.797 1309.65 454.577 1306.59 451.887C1303.53 449.197 1301.12 445.807 1299.38 441.737C1297.62 437.667 1296.75 432.757 1296.75 427.007C1296.75 420.786 1297.74 415.516 1299.72 411.196C1301.69 406.886 1304.36 403.326 1307.69 400.506C1311.03 397.696 1314.76 395.506 1318.89 393.956C1323.02 392.396 1327.18 391.326 1331.37 390.726C1335.56 390.126 1339.52 389.826 1343.25 389.826C1351.06 389.826 1358.07 391.266 1364.3 394.136C1370.53 397.006 1375.61 401.316 1379.58 407.066C1383.54 412.816 1385.8 420.056 1386.37 428.797H1362.77C1362.31 425.206 1361.06 422.276 1359.03 419.996C1356.99 417.726 1354.42 416.046 1351.31 414.966C1348.2 413.886 1344.71 413.346 1340.88 413.346C1338.38 413.346 1335.95 413.586 1333.58 414.066C1331.21 414.546 1329.08 415.296 1327.22 416.316C1325.35 417.336 1323.88 418.686 1322.81 420.356C1321.73 422.036 1321.19 424.067 1321.19 426.467C1321.19 428.867 1321.81 430.927 1323.06 432.667C1324.3 434.407 1326.14 435.897 1328.58 437.157C1331.01 438.417 1333.87 439.587 1337.15 440.657C1340.55 441.857 1344.11 442.807 1347.84 443.527C1351.58 444.247 1355.14 445.207 1358.54 446.397C1362.84 447.597 1366.86 448.997 1370.59 450.617C1374.33 452.237 1377.6 454.277 1380.44 456.727C1383.27 459.187 1385.48 462.297 1387.06 466.067C1388.63 469.837 1389.44 474.477 1389.44 479.987C1389.44 487.287 1388.16 493.487 1385.62 498.577C1383.07 503.667 1379.62 507.767 1375.26 510.877C1370.9 513.997 1365.95 516.267 1360.4 517.697C1354.86 519.137 1349.14 519.857 1343.26 519.857Z" fill="#E20613"></path>
    <path d="M631.648 40.783H729.641V336.356H631.648V40.783Z" fill="#E20613"></path>
    <path d="M763.959 188.574C763.959 158.414 770.632 131.494 783.987 107.804C797.332 84.1333 815.658 65.5132 838.937 51.9531C862.216 38.4029 888.558 31.6229 917.98 31.6229C947.403 31.6229 973.555 38.4029 996.484 51.9531C1019.4 65.5132 1037.54 84.0334 1050.9 107.514C1064.24 131.004 1070.92 157.924 1070.92 188.284C1070.92 218.645 1064.24 245.665 1050.9 269.335C1037.54 293.015 1019.31 311.635 996.219 325.186C973.12 338.736 946.864 345.516 917.441 345.516C888.019 345.516 861.763 338.736 838.673 325.186C815.573 311.635 797.342 293.015 783.996 269.335C770.641 245.665 763.968 218.735 763.968 188.564L763.959 188.574ZM973.47 188.284C973.47 169.384 968.234 153.914 957.771 141.884C947.299 129.854 933.859 123.844 917.441 123.844C901.024 123.844 887.575 129.854 877.112 141.884C866.64 153.914 861.413 169.374 861.413 188.284C861.413 207.194 866.64 222.755 877.112 234.965C887.575 247.195 901.015 253.295 917.441 253.295C933.868 253.295 947.299 247.195 957.771 234.965C968.234 222.745 973.47 207.184 973.47 188.284Z" fill="#E20613"></path>
    <path d="M277.255 5.10263V205.644C277.255 222.085 275.592 237.415 272.322 251.195C271.518 254.625 270.583 258.035 269.553 261.335C263.73 279.995 254.534 295.995 242.209 308.895C237.058 314.285 231.35 319.146 225.244 323.316C222.002 325.556 218.543 327.666 214.98 329.596C195.283 340.176 171.229 345.536 143.47 345.536C101.175 345.536 67.9621 333.206 44.7493 308.895C21.4892 284.575 9.69379 249.835 9.69379 205.654V33.7629H83.472C93.8875 33.7629 102.365 42.733 102.365 53.7531V200.434C102.365 231.135 110.503 248.825 127.261 254.515C129.803 255.385 132.563 255.985 135.464 256.325C137.837 256.625 140.389 256.775 143.281 256.775C162.344 256.775 184.215 250.375 184.215 200.434V48.963C184.215 40.1529 189.801 32.2629 197.787 29.7828L205.812 27.2928V200.434C205.812 211.195 204.876 221.005 203.014 229.605C202.173 233.565 201.124 237.305 199.905 240.715C191.304 265.185 172.788 278.615 146.353 279.565C143.961 279.655 141.532 279.635 139.273 279.535C141.655 283.345 144.339 287.065 147.269 290.615C161.872 290.155 174.584 287.085 185.056 281.465C187.041 280.395 189.035 279.175 190.982 277.825C194.498 275.425 197.787 272.625 200.774 269.505C203.354 266.795 205.708 263.845 207.759 260.745C211.435 255.235 214.394 248.935 216.568 242.015C217.154 240.175 217.692 238.205 218.184 236.145C220.083 228.105 221.057 219.175 221.057 209.605V22.5628L242.654 15.8727V209.845C242.654 222.065 241.425 233.415 238.986 243.585C238.41 246.055 237.739 248.515 236.935 251.115C233.533 262.055 228.533 271.805 222.078 280.095C220.471 282.175 218.694 284.235 216.653 286.375C212.853 290.375 208.619 293.975 204.073 297.085C201.615 298.775 199.045 300.335 196.455 301.745C189.319 305.575 181.361 308.505 172.788 310.455C171.928 310.655 171.049 310.835 170.161 310.995C174.187 313.605 178.393 315.945 182.703 317.966C186.484 316.966 190.103 315.805 193.459 314.515C206.625 309.535 217.919 302.185 227.021 292.665C234.45 284.885 240.518 275.555 245.064 264.945C246.132 262.425 247.124 259.855 247.984 257.305C253.088 242.495 255.668 225.125 255.668 205.664V11.8327L277.265 5.12262L277.255 5.10263Z" fill="#E20613"></path>
    <path d="M1354.78 63.4332C1338.19 42.263 1314.37 31.6629 1283.34 31.6629C1264.93 31.6629 1248.7 35.6629 1234.61 43.683C1226.68 48.203 1219.77 53.8231 1213.9 60.5331V138.304C1220.92 128.694 1231.06 123.864 1244.36 123.864C1269.24 123.864 1281.7 141.234 1281.7 175.984V336.336H1379.67V156.514C1379.67 115.674 1371.38 84.6434 1354.77 63.4432L1354.78 63.4332ZM1105.25 336.316H1201.06V40.813H1105.25V336.316Z" fill="#E20613"></path>
    <path d="M567.453 63.4632C550.866 42.293 527.039 31.6929 496.01 31.6929C477.608 31.6929 461.37 35.6929 447.287 43.713C439.358 48.233 432.439 53.8531 426.57 60.5631V138.334C433.592 128.724 443.734 123.894 457.032 123.894C481.918 123.894 494.375 141.264 494.375 176.014V336.366H592.349V156.544C592.349 115.704 584.05 84.6734 567.444 63.4732L567.453 63.4632ZM317.925 336.356H413.735V40.853H317.925V336.356Z" fill="#E20613"></path>
  </g>
  <defs>
    <clipPath id="clip0_1_2">
      <rect width="1397" height="526" fill="white"></rect>
    </clipPath>
  </defs>
</svg>
